<?xml version="1.0" standalone="no"?>
<!DOCTYPE svg PUBLIC "-//W3C//DTD SVG 20010904//EN"
 "http://www.w3.org/TR/2001/REC-SVG-20010904/DTD/svg10.dtd">
<svg version="1.0" xmlns="http://www.w3.org/2000/svg"
 width="4383.000000pt" height="842.000000pt" viewBox="0 0 4383.000000 842.000000"
 preserveAspectRatio="xMidYMid meet">

<g transform="translate(0.000000,842.000000) scale(0.100000,-0.100000)"
fill="#000000" stroke="none">
<path d="M1210 8369 c-230 -29 -450 -118 -638 -257 -96 -71 -237 -221 -305
-323 -99 -149 -167 -316 -204 -497 -17 -82 -18 -256 -18 -3082 0 -2826 1
-3000 18 -3082 53 -264 168 -484 349 -674 189 -197 419 -326 688 -386 l105
-23 20710 0 20710 0 105 23 c269 60 499 189 688 386 181 190 296 410 349 674
17 82 18 256 18 3082 0 2826 -1 3000 -18 3082 -53 264 -168 484 -349 674 -187
195 -414 324 -683 386 l-100 23 -20680 1 c-11374 1 -20709 -2 -20745 -7z
m13548 -1989 c278 -42 460 -93 657 -183 543 -250 968 -718 1160 -1277 88 -257
119 -449 119 -725 -1 -277 -32 -463 -125 -731 -105 -305 -299 -607 -541 -840
-179 -172 -337 -283 -562 -394 -166 -82 -327 -138 -503 -177 l-128 -28 -668
-3 -668 -3 3 1173 c3 1165 3 1173 25 1248 56 196 140 340 277 475 106 106 216
176 356 228 125 46 200 59 345 59 145 0 220 -13 345 -59 148 -55 250 -121 365
-238 194 -196 295 -437 295 -705 0 -268 -101 -509 -295 -705 -115 -117 -217
-183 -365 -238 -126 -47 -201 -59 -350 -59 -146 0 -238 18 -360 68 -47 19 -89
35 -95 37 -6 1 -11 -122 -13 -350 -2 -334 -1 -353 16 -362 10 -6 66 -20 123
-33 90 -19 134 -22 329 -23 196 0 240 3 338 23 425 86 812 346 1054 706 381
570 381 1304 0 1871 -244 364 -627 621 -1054 707 -153 31 -488 33 -643 4 -727
-135 -1279 -740 -1355 -1485 -6 -65 -10 -514 -10 -1222 l0 -1119 -255 0 -256
0 4 1238 3 1237 31 145 c97 441 292 802 602 1111 188 187 347 302 575 414 224
110 380 159 656 205 209 35 381 39 568 10z m8090 -587 l2 -403 263 -2 262 -3
3 -172 2 -173 -265 0 -265 0 0 -875 0 -875 -172 2 -173 3 -3 873 -2 872 -100
0 -100 0 2 173 3 172 98 3 97 3 0 398 c0 219 3 401 7 405 4 3 81 5 172 4 l166
-3 3 -402z m-3994 -335 c512 -100 904 -583 906 -1113 1 -425 -222 -801 -602
-1017 -190 -108 -464 -160 -675 -129 -210 31 -481 161 -613 296 -24 25 -48 45
-52 45 -4 0 -8 -238 -8 -530 l0 -530 -170 0 -170 0 0 989 c0 1059 1 1074 51
1224 28 84 89 209 141 287 57 87 226 254 318 315 260 170 557 226 874 163z
m2439 2 c199 -44 394 -154 548 -309 138 -138 221 -272 283 -452 52 -153 56
-215 56 -836 l0 -573 -175 0 -175 0 0 111 0 111 -52 -44 c-345 -291 -822 -356
-1227 -167 -163 76 -330 210 -434 349 -100 133 -184 326 -212 487 -32 182 -14
417 45 580 149 416 499 702 932 763 95 13 310 3 411 -20z m4799 1 c107 -25
259 -87 352 -145 85 -53 226 -171 226 -190 0 -12 -96 -95 -580 -501 -96 -80
-216 -181 -266 -223 -50 -42 -211 -178 -357 -301 -147 -123 -267 -231 -267
-239 0 -23 148 -163 213 -201 210 -124 453 -153 672 -80 130 43 216 97 320
203 156 156 226 326 229 549 l1 117 172 0 173 0 1 -52 c6 -283 -61 -513 -210
-723 -57 -80 -190 -212 -273 -271 -158 -112 -385 -193 -580 -208 -374 -29
-765 149 -994 453 -268 354 -307 822 -103 1224 56 111 122 198 224 295 183
177 387 274 660 316 67 10 302 -4 387 -23z m2429 0 c287 -65 553 -254 716
-511 150 -235 207 -543 153 -823 -25 -128 -45 -187 -100 -297 -57 -114 -103
-180 -190 -273 -450 -482 -1211 -483 -1667 -4 -89 94 -141 170 -203 300 -70
145 -100 269 -107 440 -10 260 51 482 189 687 66 97 104 140 197 223 168 149
376 244 606 277 91 13 308 3 406 -19z m2266 0 c92 -23 238 -92 322 -153 197
-143 328 -352 381 -610 6 -32 16 -58 21 -58 5 0 9 -266 9 -675 l0 -675 -182 2
-183 3 -5 680 c-5 671 -5 681 -27 745 -62 179 -207 327 -378 385 -65 23 -233
31 -308 15 -189 -39 -379 -217 -444 -417 l-26 -78 -1 -665 -1 -665 -173 -3
-172 -2 2 1047 3 1048 165 0 165 0 3 -45 c4 -74 7 -75 69 -27 108 83 266 147
418 171 65 10 262 -4 342 -23z m-6889 -228 c1 -84 7 -153 11 -153 5 0 35 22
67 49 119 101 322 202 476 236 40 9 121 19 181 22 l107 6 0 -170 0 -170 -37
-7 c-21 -3 -56 -6 -79 -6 -62 0 -183 -34 -265 -75 -166 -83 -279 -193 -363
-355 -84 -161 -80 -126 -86 -755 l-5 -560 -170 0 -170 0 -3 1035 c-1 569 0
1041 3 1048 3 10 43 12 167 10 l163 -3 3 -152z"/>
<path d="M18518 5130 c-324 -39 -597 -279 -678 -596 -25 -98 -27 -274 -4 -377
59 -265 266 -490 534 -580 89 -29 104 -31 240 -32 125 0 156 3 220 23 287 90
492 308 561 597 31 129 24 283 -20 415 -117 363 -477 595 -853 550z"/>
<path d="M20875 5125 c-117 -22 -278 -104 -373 -190 -177 -163 -262 -355 -262
-594 0 -179 42 -313 141 -457 130 -187 331 -306 571 -337 277 -35 582 108 745
352 225 336 157 798 -154 1056 -77 63 -218 137 -308 160 -87 23 -263 28 -360
10z"/>
<path d="M25680 5125 c-129 -27 -249 -85 -354 -171 -116 -96 -196 -216 -252
-379 -24 -71 -27 -95 -28 -215 -1 -103 2 -135 12 -135 7 0 87 63 179 140 92
77 284 239 427 359 144 121 298 250 344 289 45 38 82 73 82 78 0 9 -47 23
-130 39 -71 13 -200 11 -280 -5z"/>
<path d="M28115 5126 c-296 -59 -543 -287 -622 -576 -25 -92 -25 -320 0 -410
38 -140 111 -265 214 -367 169 -166 424 -255 647 -225 178 23 346 105 469 225
103 102 176 227 214 367 25 91 25 319 0 410 -42 151 -147 311 -272 413 -69 57
-213 129 -300 152 -84 22 -264 28 -350 11z"/>
</g>
</svg>
