<?xml version="1.0" standalone="no"?>
<!DOCTYPE svg PUBLIC "-//W3C//DTD SVG 20010904//EN"
 "http://www.w3.org/TR/2001/REC-SVG-20010904/DTD/svg10.dtd">
<svg version="1.0" xmlns="http://www.w3.org/2000/svg"
 width="1920.000000pt" height="441.000000pt" viewBox="0 0 1920.000000 441.000000"
 preserveAspectRatio="xMidYMid meet">

<g transform="translate(0.000000,441.000000) scale(0.100000,-0.100000)"
fill="#000000" stroke="none">
<path d="M1829 4370 c-613 -105 -1131 -448 -1477 -975 -114 -173 -246 -482
-287 -670 -63 -290 -59 -193 -62 -1507 l-4 -1198 255 0 255 0 4 1183 c4 1286
0 1201 61 1441 114 448 440 851 861 1064 237 120 496 182 760 182 564 0 1083
-280 1401 -755 283 -422 353 -974 188 -1465 -184 -546 -652 -970 -1206 -1094
-180 -41 -267 -49 -438 -43 -154 5 -386 44 -417 69 -10 8 -13 92 -13 360 0
388 -3 375 68 339 21 -11 86 -35 143 -52 100 -32 110 -33 274 -33 157 0 177 2
260 27 190 58 329 142 461 279 116 120 195 256 239 412 54 192 54 360 0 552
-44 156 -123 292 -239 412 -132 137 -274 223 -461 278 -109 32 -302 43 -409
25 -234 -41 -421 -142 -583 -316 -145 -154 -241 -363 -263 -570 -6 -51 -10
-566 -10 -1192 l0 -1103 594 0 595 0 174 29 c809 137 1467 700 1721 1474 55
168 82 300 103 520 16 155 16 179 0 335 -9 92 -26 215 -37 274 -60 312 -233
680 -437 931 -155 191 -336 352 -538 481 -237 151 -520 257 -812 307 -153 25
-198 29 -366 28 -164 0 -217 -5 -358 -29z"/>
<path d="M10190 3805 l0 -404 -102 -3 -103 -3 -3 -172 -2 -172 102 -3 103 -3
3 -873 2 -872 175 0 175 0 2 873 3 872 263 3 262 2 0 175 0 175 -265 0 -265 0
0 405 0 405 -175 0 -175 0 0 -405z"/>
<path d="M6135 3486 c-254 -42 -468 -149 -640 -321 -189 -188 -301 -422 -335
-695 -6 -53 -10 -435 -10 -1032 l0 -948 175 0 175 0 0 523 c0 288 2 526 5 529
3 2 25 -15 49 -38 142 -135 372 -252 574 -290 114 -21 331 -14 447 15 418 104
735 423 847 851 29 112 36 327 13 461 -77 464 -435 834 -905 935 -102 21 -296
27 -395 10z m373 -367 c40 -10 114 -40 165 -66 75 -39 109 -64 187 -143 110
-109 157 -184 202 -320 30 -89 32 -104 33 -240 0 -125 -3 -155 -23 -220 -84
-264 -264 -452 -522 -542 -91 -31 -101 -33 -245 -33 -139 0 -156 2 -235 29
-156 52 -241 107 -353 226 -90 96 -168 240 -192 355 -19 91 -19 282 0 363 104
439 543 704 983 591z"/>
<path d="M8522 3485 c-232 -42 -435 -149 -608 -320 -177 -176 -295 -408 -329
-649 -14 -100 -7 -300 15 -404 79 -390 374 -721 756 -851 339 -115 716 -62
1019 142 33 23 79 59 102 80 l43 40 0 -112 0 -111 175 0 175 0 0 578 c0 697
-5 742 -101 950 -132 286 -383 515 -670 612 -168 57 -408 76 -577 45z m403
-360 c173 -45 341 -160 441 -302 234 -326 199 -761 -83 -1040 -177 -174 -448
-263 -679 -222 -331 58 -584 296 -661 619 -17 74 -19 249 -4 327 59 298 314
559 610 624 102 23 280 20 376 -6z"/>
<path d="M13305 3481 c-235 -49 -428 -153 -595 -320 -163 -163 -278 -390 -316
-620 -21 -125 -14 -341 15 -457 55 -225 160 -404 333 -570 385 -371 1007 -416
1443 -105 281 200 447 484 485 832 6 57 8 129 5 161 l-7 58 -173 0 -173 0 0
-112 c-2 -360 -230 -662 -576 -762 -219 -64 -448 -32 -642 90 -73 45 -214 176
-214 198 0 6 73 72 163 147 89 75 239 201 333 280 94 79 252 211 350 294 222
186 627 527 634 533 8 7 -129 131 -194 174 -90 62 -254 136 -363 165 -134 35
-373 42 -508 14z m345 -341 c83 -16 130 -30 130 -39 0 -5 -55 -55 -122 -112
-68 -57 -163 -137 -213 -179 -49 -42 -175 -148 -280 -235 -104 -88 -239 -201
-300 -252 -60 -51 -114 -91 -120 -90 -16 6 -17 198 -1 275 66 316 312 563 626
627 80 16 209 18 280 5z"/>
<path d="M15715 3476 c-158 -34 -271 -83 -415 -179 -89 -60 -217 -186 -281
-277 -95 -133 -171 -316 -199 -480 -17 -95 -14 -310 5 -402 83 -403 349 -720
725 -863 140 -54 233 -69 405 -69 172 0 265 15 405 69 703 268 965 1122 534
1740 -100 143 -262 283 -424 365 -228 115 -499 149 -755 96z m410 -345 c207
-42 408 -187 515 -370 85 -147 115 -274 107 -450 -6 -136 -27 -215 -86 -329
-102 -194 -270 -333 -486 -398 -78 -24 -107 -27 -220 -27 -113 0 -142 3 -220
27 -260 79 -450 263 -537 519 -55 165 -50 379 14 541 30 78 93 179 149 241
196 214 479 305 764 246z"/>
<path d="M18055 3481 c-146 -35 -256 -87 -347 -163 l-47 -39 -3 58 -3 58 -175
0 -175 0 0 -1045 0 -1045 178 -3 177 -2 1 662 c0 592 2 670 17 728 52 198 238
383 438 435 274 71 582 -94 682 -366 38 -103 42 -187 42 -835 l0 -624 181 0
180 0 -3 693 c-4 673 -5 694 -26 769 -80 290 -245 500 -495 633 -133 71 -236
97 -402 101 -112 3 -156 0 -220 -15z"/>
<path d="M11250 2350 l0 -1050 175 0 175 0 0 528 c0 583 2 599 64 742 118 274
376 458 670 479 l91 6 3 174 2 174 -117 -6 c-241 -12 -444 -92 -645 -253 -37
-30 -69 -54 -72 -54 -4 0 -6 70 -6 155 l0 155 -170 0 -170 0 0 -1050z"/>
<path d="M4797 3 c2642 -2 6964 -2 9605 0 2642 1 481 2 -4802 2 -5283 0 -7444
-1 -4803 -2z"/>
</g>
</svg>
